<mxfile host="Electron" modified="2023-04-17T16:11:59.427Z" agent="Mozilla/5.0 (Windows NT 10.0; Win64; x64) AppleWebKit/537.36 (KHTML, like Gecko) draw.io/21.1.2 Chrome/106.0.5249.199 Electron/21.4.3 Safari/537.36" etag="da0BU6SE5z_SNQ0tXLXK" version="21.1.2" type="device">
  <diagram name="Seite-1" id="8aOdNXkI3-geUy5TIXrA">
    <mxGraphModel dx="780" dy="490" grid="1" gridSize="10" guides="1" tooltips="1" connect="1" arrows="1" fold="1" page="1" pageScale="1" pageWidth="827" pageHeight="1169" math="0" shadow="0">
      <root>
        <mxCell id="0" />
        <mxCell id="1" parent="0" />
        <mxCell id="B7RUiPvE4F7A1PjEDF5y-30" value="" style="rounded=0;whiteSpace=wrap;html=1;rotation=-90;fillColor=none;strokeWidth=2;" parent="1" vertex="1">
          <mxGeometry x="235" y="85" width="210" height="100" as="geometry" />
        </mxCell>
        <mxCell id="B7RUiPvE4F7A1PjEDF5y-41" value="" style="endArrow=none;html=1;rounded=0;strokeWidth=1.5;exitX=0.048;exitY=0;exitDx=0;exitDy=0;exitPerimeter=0;" parent="1" source="B7RUiPvE4F7A1PjEDF5y-30" edge="1">
          <mxGeometry width="50" height="50" relative="1" as="geometry">
            <mxPoint x="285" y="230" as="sourcePoint" />
            <mxPoint x="245" y="140" as="targetPoint" />
            <Array as="points">
              <mxPoint x="225" y="230" />
              <mxPoint x="225" y="140" />
            </Array>
          </mxGeometry>
        </mxCell>
        <mxCell id="B7RUiPvE4F7A1PjEDF5y-28" value="" style="rounded=0;whiteSpace=wrap;html=1;rotation=-90;fillColor=none;strokeWidth=2;" parent="1" vertex="1">
          <mxGeometry x="110" y="85" width="210" height="100" as="geometry" />
        </mxCell>
        <mxCell id="B7RUiPvE4F7A1PjEDF5y-31" value="" style="rounded=0;whiteSpace=wrap;html=1;rotation=-90;fillColor=none;strokeWidth=2;" parent="1" vertex="1">
          <mxGeometry x="235" y="325" width="210" height="100" as="geometry" />
        </mxCell>
        <mxCell id="B7RUiPvE4F7A1PjEDF5y-32" value="" style="rounded=0;whiteSpace=wrap;html=1;rotation=-90;fillColor=none;strokeWidth=2;" parent="1" vertex="1">
          <mxGeometry x="305" y="155" width="450" height="200" as="geometry" />
        </mxCell>
        <mxCell id="B7RUiPvE4F7A1PjEDF5y-33" value="" style="endArrow=none;html=1;rounded=0;strokeWidth=1.5;exitX=0.096;exitY=1.003;exitDx=0;exitDy=0;exitPerimeter=0;" parent="1" source="B7RUiPvE4F7A1PjEDF5y-31" edge="1">
          <mxGeometry width="50" height="50" relative="1" as="geometry">
            <mxPoint x="370" y="460" as="sourcePoint" />
            <mxPoint x="430" y="460" as="targetPoint" />
          </mxGeometry>
        </mxCell>
        <mxCell id="B7RUiPvE4F7A1PjEDF5y-34" value="" style="endArrow=none;html=1;rounded=0;strokeWidth=1.5;exitX=0.906;exitY=0.999;exitDx=0;exitDy=0;exitPerimeter=0;" parent="1" source="B7RUiPvE4F7A1PjEDF5y-30" edge="1">
          <mxGeometry width="50" height="50" relative="1" as="geometry">
            <mxPoint x="370" y="50" as="sourcePoint" />
            <mxPoint x="430" y="50" as="targetPoint" />
          </mxGeometry>
        </mxCell>
        <mxCell id="B7RUiPvE4F7A1PjEDF5y-38" value="" style="group;fillColor=none;" parent="1" vertex="1" connectable="0">
          <mxGeometry x="195" y="140" width="60" height="40" as="geometry" />
        </mxCell>
        <mxCell id="B7RUiPvE4F7A1PjEDF5y-36" value="" style="rounded=0;whiteSpace=wrap;html=1;fillColor=none;rotation=0;" parent="B7RUiPvE4F7A1PjEDF5y-38" vertex="1">
          <mxGeometry x="5" y="5" width="10" height="30" as="geometry" />
        </mxCell>
        <mxCell id="B7RUiPvE4F7A1PjEDF5y-37" value="Cup" style="text;html=1;strokeColor=none;fillColor=default;align=center;verticalAlign=middle;whiteSpace=wrap;rounded=0;rotation=0;" parent="B7RUiPvE4F7A1PjEDF5y-38" vertex="1">
          <mxGeometry x="16" y="10" width="30" height="20" as="geometry" />
        </mxCell>
        <mxCell id="B7RUiPvE4F7A1PjEDF5y-35" value="" style="endArrow=none;html=1;rounded=0;" parent="B7RUiPvE4F7A1PjEDF5y-38" edge="1">
          <mxGeometry width="50" height="50" relative="1" as="geometry">
            <mxPoint x="45" y="30" as="sourcePoint" />
            <mxPoint x="45" y="10" as="targetPoint" />
            <Array as="points">
              <mxPoint x="25" y="30" />
              <mxPoint x="15" y="40" />
              <mxPoint x="5" y="40" />
              <mxPoint x="5" />
              <mxPoint x="15" />
              <mxPoint x="25" y="10" />
            </Array>
          </mxGeometry>
        </mxCell>
        <mxCell id="B7RUiPvE4F7A1PjEDF5y-43" value="" style="group;fillColor=none;" parent="1" vertex="1" connectable="0">
          <mxGeometry x="195" y="190" width="60" height="40" as="geometry" />
        </mxCell>
        <mxCell id="B7RUiPvE4F7A1PjEDF5y-44" value="" style="rounded=0;whiteSpace=wrap;html=1;fillColor=none;rotation=0;" parent="B7RUiPvE4F7A1PjEDF5y-43" vertex="1">
          <mxGeometry x="5" y="5" width="10" height="30" as="geometry" />
        </mxCell>
        <mxCell id="B7RUiPvE4F7A1PjEDF5y-45" value="Cup" style="text;html=1;strokeColor=none;fillColor=default;align=center;verticalAlign=middle;whiteSpace=wrap;rounded=0;rotation=0;" parent="B7RUiPvE4F7A1PjEDF5y-43" vertex="1">
          <mxGeometry x="16" y="10" width="30" height="20" as="geometry" />
        </mxCell>
        <mxCell id="B7RUiPvE4F7A1PjEDF5y-46" value="" style="endArrow=none;html=1;rounded=0;" parent="B7RUiPvE4F7A1PjEDF5y-43" edge="1">
          <mxGeometry width="50" height="50" relative="1" as="geometry">
            <mxPoint x="45" y="30" as="sourcePoint" />
            <mxPoint x="45" y="10" as="targetPoint" />
            <Array as="points">
              <mxPoint x="25" y="30" />
              <mxPoint x="15" y="40" />
              <mxPoint x="5" y="40" />
              <mxPoint x="5" />
              <mxPoint x="15" />
              <mxPoint x="25" y="10" />
            </Array>
          </mxGeometry>
        </mxCell>
        <mxCell id="B7RUiPvE4F7A1PjEDF5y-47" value="" style="endArrow=none;html=1;rounded=0;strokeWidth=1.5;exitX=0.952;exitY=0;exitDx=0;exitDy=0;exitPerimeter=0;" parent="1" source="B7RUiPvE4F7A1PjEDF5y-30" edge="1">
          <mxGeometry width="50" height="50" relative="1" as="geometry">
            <mxPoint x="285" y="40" as="sourcePoint" />
            <mxPoint x="245" y="130" as="targetPoint" />
            <Array as="points">
              <mxPoint x="225" y="40" />
              <mxPoint x="225" y="130" />
            </Array>
          </mxGeometry>
        </mxCell>
        <mxCell id="B7RUiPvE4F7A1PjEDF5y-48" value="" style="edgeStyle=orthogonalEdgeStyle;rounded=0;orthogonalLoop=1;jettySize=auto;html=1;" parent="1" source="B7RUiPvE4F7A1PjEDF5y-37" target="B7RUiPvE4F7A1PjEDF5y-45" edge="1">
          <mxGeometry relative="1" as="geometry" />
        </mxCell>
        <mxCell id="B7RUiPvE4F7A1PjEDF5y-53" value="" style="group;fillColor=none;" parent="1" vertex="1" connectable="0">
          <mxGeometry x="195" y="40" width="60" height="40" as="geometry" />
        </mxCell>
        <mxCell id="B7RUiPvE4F7A1PjEDF5y-54" value="" style="rounded=0;whiteSpace=wrap;html=1;fillColor=none;rotation=0;" parent="B7RUiPvE4F7A1PjEDF5y-53" vertex="1">
          <mxGeometry x="5" y="5" width="10" height="30" as="geometry" />
        </mxCell>
        <mxCell id="B7RUiPvE4F7A1PjEDF5y-55" value="Cup" style="text;html=1;strokeColor=none;fillColor=default;align=center;verticalAlign=middle;whiteSpace=wrap;rounded=0;rotation=0;" parent="B7RUiPvE4F7A1PjEDF5y-53" vertex="1">
          <mxGeometry x="16" y="10" width="30" height="20" as="geometry" />
        </mxCell>
        <mxCell id="B7RUiPvE4F7A1PjEDF5y-56" value="" style="endArrow=none;html=1;rounded=0;" parent="B7RUiPvE4F7A1PjEDF5y-53" edge="1">
          <mxGeometry width="50" height="50" relative="1" as="geometry">
            <mxPoint x="45" y="30" as="sourcePoint" />
            <mxPoint x="45" y="10" as="targetPoint" />
            <Array as="points">
              <mxPoint x="25" y="30" />
              <mxPoint x="15" y="40" />
              <mxPoint x="5" y="40" />
              <mxPoint x="5" />
              <mxPoint x="15" />
              <mxPoint x="25" y="10" />
            </Array>
          </mxGeometry>
        </mxCell>
        <mxCell id="B7RUiPvE4F7A1PjEDF5y-57" value="" style="group;fillColor=none;" parent="1" vertex="1" connectable="0">
          <mxGeometry x="195" y="90" width="60" height="40" as="geometry" />
        </mxCell>
        <mxCell id="B7RUiPvE4F7A1PjEDF5y-58" value="" style="rounded=0;whiteSpace=wrap;html=1;fillColor=none;rotation=0;" parent="B7RUiPvE4F7A1PjEDF5y-57" vertex="1">
          <mxGeometry x="5" y="5" width="10" height="30" as="geometry" />
        </mxCell>
        <mxCell id="B7RUiPvE4F7A1PjEDF5y-59" value="Cup" style="text;html=1;strokeColor=none;fillColor=default;align=center;verticalAlign=middle;whiteSpace=wrap;rounded=0;rotation=0;" parent="B7RUiPvE4F7A1PjEDF5y-57" vertex="1">
          <mxGeometry x="16" y="10" width="30" height="20" as="geometry" />
        </mxCell>
        <mxCell id="B7RUiPvE4F7A1PjEDF5y-60" value="" style="endArrow=none;html=1;rounded=0;" parent="B7RUiPvE4F7A1PjEDF5y-57" edge="1">
          <mxGeometry width="50" height="50" relative="1" as="geometry">
            <mxPoint x="45" y="30" as="sourcePoint" />
            <mxPoint x="45" y="10" as="targetPoint" />
            <Array as="points">
              <mxPoint x="25" y="30" />
              <mxPoint x="15" y="40" />
              <mxPoint x="5" y="40" />
              <mxPoint x="5" />
              <mxPoint x="15" />
              <mxPoint x="25" y="10" />
            </Array>
          </mxGeometry>
        </mxCell>
        <mxCell id="B7RUiPvE4F7A1PjEDF5y-61" value="" style="endArrow=none;html=1;rounded=0;strokeWidth=1.5;" parent="1" edge="1">
          <mxGeometry width="50" height="50" relative="1" as="geometry">
            <mxPoint x="290" y="230" as="sourcePoint" />
            <mxPoint x="400" y="180" as="targetPoint" />
            <Array as="points">
              <mxPoint x="330" y="180" />
            </Array>
          </mxGeometry>
        </mxCell>
        <mxCell id="B7RUiPvE4F7A1PjEDF5y-63" value="" style="endArrow=none;html=1;rounded=0;strokeWidth=1.5;exitX=0.949;exitY=-0.001;exitDx=0;exitDy=0;exitPerimeter=0;" parent="1" source="B7RUiPvE4F7A1PjEDF5y-30" edge="1">
          <mxGeometry width="50" height="50" relative="1" as="geometry">
            <mxPoint x="290" y="220" as="sourcePoint" />
            <mxPoint x="400" y="90" as="targetPoint" />
            <Array as="points">
              <mxPoint x="330" y="90" />
            </Array>
          </mxGeometry>
        </mxCell>
        <mxCell id="B7RUiPvE4F7A1PjEDF5y-69" value="" style="endArrow=none;html=1;rounded=0;strokeWidth=1.5;" parent="1" edge="1">
          <mxGeometry width="50" height="50" relative="1" as="geometry">
            <mxPoint x="290" y="280" as="sourcePoint" />
            <mxPoint x="400" y="329" as="targetPoint" />
            <Array as="points">
              <mxPoint x="330" y="330" />
            </Array>
          </mxGeometry>
        </mxCell>
        <mxCell id="B7RUiPvE4F7A1PjEDF5y-70" value="" style="endArrow=none;html=1;rounded=0;strokeWidth=1.5;" parent="1" edge="1">
          <mxGeometry width="50" height="50" relative="1" as="geometry">
            <mxPoint x="290" y="470" as="sourcePoint" />
            <mxPoint x="400" y="420" as="targetPoint" />
            <Array as="points">
              <mxPoint x="330" y="420" />
            </Array>
          </mxGeometry>
        </mxCell>
        <mxCell id="B7RUiPvE4F7A1PjEDF5y-71" value="" style="endArrow=none;html=1;rounded=0;strokeWidth=1.5;entryX=0.312;entryY=1.001;entryDx=0;entryDy=0;entryPerimeter=0;" parent="1" target="B7RUiPvE4F7A1PjEDF5y-32" edge="1">
          <mxGeometry width="50" height="50" relative="1" as="geometry">
            <mxPoint x="430" y="460" as="sourcePoint" />
            <mxPoint x="540" y="410" as="targetPoint" />
            <Array as="points">
              <mxPoint x="510" y="340" />
            </Array>
          </mxGeometry>
        </mxCell>
        <mxCell id="B7RUiPvE4F7A1PjEDF5y-72" value="" style="endArrow=none;html=1;rounded=0;strokeWidth=1.5;exitX=0.949;exitY=-0.001;exitDx=0;exitDy=0;exitPerimeter=0;entryX=0.69;entryY=0.994;entryDx=0;entryDy=0;entryPerimeter=0;" parent="1" target="B7RUiPvE4F7A1PjEDF5y-32" edge="1">
          <mxGeometry width="50" height="50" relative="1" as="geometry">
            <mxPoint x="430" y="51" as="sourcePoint" />
            <mxPoint x="540" y="100" as="targetPoint" />
            <Array as="points">
              <mxPoint x="510" y="170" />
            </Array>
          </mxGeometry>
        </mxCell>
        <mxCell id="B7RUiPvE4F7A1PjEDF5y-73" value="&lt;font style=&quot;font-size: 18px;&quot;&gt;Sector&lt;/font&gt;" style="text;html=1;strokeColor=none;fillColor=none;align=center;verticalAlign=middle;whiteSpace=wrap;rounded=0;rotation=-90;" parent="1" vertex="1">
          <mxGeometry x="150" y="195" width="60" height="30" as="geometry" />
        </mxCell>
        <mxCell id="B7RUiPvE4F7A1PjEDF5y-74" value="&lt;font style=&quot;font-size: 18px;&quot;&gt;Primary Header&lt;/font&gt;" style="text;html=1;strokeColor=none;fillColor=none;align=center;verticalAlign=middle;whiteSpace=wrap;rounded=0;rotation=-90;" parent="1" vertex="1">
          <mxGeometry x="290" y="120" width="60" height="30" as="geometry" />
        </mxCell>
        <mxCell id="B7RUiPvE4F7A1PjEDF5y-75" value="&lt;font style=&quot;font-size: 18px;&quot;&gt;Primary Header&lt;/font&gt;" style="text;html=1;strokeColor=none;fillColor=none;align=center;verticalAlign=middle;whiteSpace=wrap;rounded=0;rotation=-90;" parent="1" vertex="1">
          <mxGeometry x="290" y="360" width="60" height="30" as="geometry" />
        </mxCell>
        <mxCell id="B7RUiPvE4F7A1PjEDF5y-76" value="&lt;font style=&quot;font-size: 18px;&quot;&gt;Secondary Header&lt;/font&gt;" style="text;html=1;strokeColor=none;fillColor=none;align=center;verticalAlign=middle;whiteSpace=wrap;rounded=0;rotation=-90;" parent="1" vertex="1">
          <mxGeometry x="396.25" y="240" width="157.5" height="30" as="geometry" />
        </mxCell>
      </root>
    </mxGraphModel>
  </diagram>
</mxfile>
